<svg xmlns="http://www.w3.org/2000/svg" width="570" height="311.217" viewBox="0 0 570 311.217">
  <g id="IT_Service_Fiji_ic_2" transform="translate(-211 -1077.955)">
    <g id="IT_Service_Mauritius_ic_7" transform="translate(-601 -3763)">
      <g id="IT_Service_Italy_ic_8" transform="translate(600 482.652)">
        <g id="IT_Service_Tajikistan_ic_8" transform="translate(-3 111.52)">
          <g id="IT_Service_Brunei_ic_2" transform="translate(3 3292)">
            <g id="Group_306763" data-name="Group 306763" transform="translate(212 994)">
              <g id="Group_306762" data-name="Group 306762" transform="translate(43.592 -21.517)">
                <g id="Group_306761" data-name="Group 306761" transform="translate(-24 -17.699)">
                  <g id="Group_306694" data-name="Group 306694" transform="translate(255.417 74.983)">
                    <rect id="Rectangle_163243" data-name="Rectangle 163243" width="5.317" height="6.345" transform="translate(0.345 0.412)" fill="#121936"/>
                    <path id="Path_138505" data-name="Path 138505" d="M354.675,162.835h-6.008v-7.169h6.008Zm-5.317-.824h4.627v-5.519h-4.627Z" transform="translate(-348.667 -155.666)" fill="#fff"/>
                  </g>
                  <g id="Group_306695" data-name="Group 306695" transform="translate(362.865 74.983)">
                    <rect id="Rectangle_163244" data-name="Rectangle 163244" width="5.317" height="6.345" transform="translate(0.345 0.412)" fill="#121936"/>
                    <path id="Path_138506" data-name="Path 138506" d="M510.147,162.835h-6.009v-7.169h6.009Zm-5.318-.824h4.627v-5.519h-4.627Z" transform="translate(-504.138 -155.666)" fill="#fff"/>
                  </g>
                  <g id="Group_306699" data-name="Group 306699" transform="translate(241.78)">
                    <path id="Path_138507" data-name="Path 138507" d="M523.172,374.395l-119.445-.058c-11.021-.005-19.951-8.467-19.945-18.9l.142-271.316c.006-10.433,8.945-18.89,19.966-18.881l119.445.057c11.021.006,19.951,8.467,19.945,18.9l-.142,271.315C543.132,365.946,534.194,374.4,523.172,374.395Z" transform="translate(-383.437 -64.827)" fill="#195382"/>
                    <path id="Path_138508" data-name="Path 138508" d="M523,374.719h-.01L403.6,374.662a20.756,20.756,0,0,1-14.358-5.645,18.694,18.694,0,0,1-5.963-13.668l.142-271.316c.006-10.64,9.127-19.294,20.333-19.294h.01L523.15,64.8a20.757,20.757,0,0,1,14.357,5.642,18.7,18.7,0,0,1,5.963,13.669l-.142,271.315C543.324,366.064,534.2,374.719,523,374.719Zm-.01-.824H523c10.781,0,19.553-8.283,19.558-18.47L542.7,84.109a17.856,17.856,0,0,0-5.7-13.052,20.014,20.014,0,0,0-13.842-5.435l-119.383-.057h-.01c-10.779,0-19.553,8.284-19.559,18.47l-.142,271.315a17.859,17.859,0,0,0,5.7,13.052,20.013,20.013,0,0,0,13.842,5.436Z" transform="translate(-383.282 -64.739)" fill="#121936"/>
                    <path id="Path_138509" data-name="Path 138509" d="M521.617,370.6l-111.108-.052a18.417,18.417,0,0,1-18.553-18.273l.138-262.312A18.417,18.417,0,0,1,410.666,71.7l111.108.053A18.416,18.416,0,0,1,540.326,90.03l-.138,262.312A18.415,18.415,0,0,1,521.617,370.6Z" transform="translate(-385.961 -65.961)" fill="#195382"/>
                    <g id="Group_306696" data-name="Group 306696" transform="translate(53.35 21.232)">
                      <path id="Path_138510" data-name="Path 138510" d="M459.747,94.565h0a1.775,1.775,0,0,1-1.3-.583,2.179,2.179,0,0,1,0-2.916,1.775,1.775,0,0,1,1.3-.581h0a1.775,1.775,0,0,1,1.3.582,2.123,2.123,0,0,1,.558,1.458h0A1.959,1.959,0,0,1,459.747,94.565Zm0-3.253a1.141,1.141,0,0,0-.841.37,1.244,1.244,0,0,0,0,1.686,1.141,1.141,0,0,0,.841.372h0a1.2,1.2,0,0,0,1.171-1.218,1.232,1.232,0,0,0-.329-.843,1.141,1.141,0,0,0-.841-.371Z" transform="translate(-452.137 -90.485)" fill="#fff" opacity="0.89"/>
                      <path id="Path_138511" data-name="Path 138511" d="M450.493,93.774a1.039,1.039,0,0,1,0-2.065h0a.984.984,0,0,1,.924,1.033h0A.985.985,0,0,1,450.493,93.774Zm0-1.241a.226.226,0,0,0-.233.209c0,.224.465.225.466,0a.224.224,0,0,0-.233-.207Z" transform="translate(-449.569 -90.7)" fill="#fff" opacity="0.89"/>
                      <path id="Path_138512" data-name="Path 138512" d="M492.809,94.145l-23.257-.013a1.434,1.434,0,0,1-1.353-1.5,1.563,1.563,0,0,1,.411-1.074,1.288,1.288,0,0,1,.946-.422h0l23.256.013a1.286,1.286,0,0,1,.945.423,1.565,1.565,0,0,1,.411,1.078A1.433,1.433,0,0,1,492.809,94.145Zm-23.256-2.181a.658.658,0,0,0-.484.211.673.673,0,0,0,.483,1.133l23.257.013a.673.673,0,0,0,.484-1.132.66.66,0,0,0-.484-.212l-23.256-.013Z" transform="translate(-455.323 -90.601)" fill="#fff" opacity="0.89"/>
                    </g>
                    <path id="Path_138513" data-name="Path 138513" d="M491.9,421.036h0l-25.21-.014a3.867,3.867,0,0,1-2.97-1.469,5.5,5.5,0,0,1-1.229-3.545v-.216c0-2.762,1.886-5.008,4.2-5.008h0l25.211.014a3.866,3.866,0,0,1,2.97,1.469,5.507,5.507,0,0,1,1.228,3.545v.216C496.1,418.788,494.212,421.036,491.9,421.036Zm-25.209-9.428c-1.935,0-3.509,1.878-3.51,4.184v.215a4.6,4.6,0,0,0,1.027,2.962,3.224,3.224,0,0,0,2.48,1.228l25.21.014h0c1.935,0,3.509-1.877,3.509-4.184v-.215a4.6,4.6,0,0,0-1.026-2.962,3.226,3.226,0,0,0-2.48-1.228l-25.211-.014Z" transform="translate(-399.171 -125.42)" fill="#fff"/>
                    <rect id="Rectangle_163245" data-name="Rectangle 163245" width="139.996" height="233.124" transform="translate(10.443 40.08)" fill="#fff"/>
                    <g id="Group_306698" data-name="Group 306698" transform="translate(6.062 40.076)">
                      <rect id="Rectangle_163246" data-name="Rectangle 163246" width="148.298" height="233.124" fill="#fff" opacity="0.81"/>
                      <g id="Group_306697" data-name="Group 306697" transform="translate(16.113 17.701)">
                        <path id="Path_138514" data-name="Path 138514" d="M538.1,175.85h0l-53.713-.1a.419.419,0,0,1,0-.824h0l53.712.1a.419.419,0,0,1,0,.824Z" transform="translate(-419.435 -141.838)" fill="#353148" opacity="0.69"/>
                        <path id="Path_138515" data-name="Path 138515" d="M511.19,209.967h0l-26.857-.049a.419.419,0,0,1,0-.824h0l26.857.049a.419.419,0,0,1,0,.824Z" transform="translate(-425.623 -147.83)" fill="#353148" opacity="0.69"/>
                        <path id="Path_138516" data-name="Path 138516" d="M499.969,186.037h0L484.358,186a.419.419,0,0,1,0-.824h0l15.611.037a.419.419,0,0,1,0,.824Z" transform="translate(-427.065 -143.636)" fill="#353148" opacity="0.69"/>
                        <path id="Path_138517" data-name="Path 138517" d="M546.728,186.112h0l-34.341-.036a.419.419,0,0,1,0-.824h0l34.341.036a.419.419,0,0,1,0,.824Z" transform="translate(-428.084 -143.649)" fill="#353148" opacity="0.69"/>
                        <path id="Path_138518" data-name="Path 138518" d="M514.722,198.162h0l-30.363-.037a.419.419,0,0,1,0-.824h0l30.363.037a.419.419,0,0,1,0,.824Z" transform="translate(-425.085 -145.762)" fill="#353148" opacity="0.69"/>
                        <path id="Path_138519" data-name="Path 138519" d="M553.115,198.237h0l-20.053-.037a.419.419,0,0,1,0-.824h0l20.053.037a.419.419,0,0,1,0,.824Z" transform="translate(-434.47 -145.775)" fill="#353148" opacity="0.69"/>
                        <path id="Path_138520" data-name="Path 138520" d="M538.1,142.13h0l-53.713-.1a.419.419,0,0,1,0-.824h0l53.712.1a.419.419,0,0,1,0,.824Z" transform="translate(-419.435 -135.925)" fill="#353148" opacity="0.69"/>
                        <path id="Path_138521" data-name="Path 138521" d="M499.969,152.316h0l-15.611-.036a.419.419,0,0,1,0-.824h0l15.611.036a.419.419,0,0,1,0,.824Z" transform="translate(-427.065 -137.722)" fill="#353148" opacity="0.69"/>
                        <path id="Path_138522" data-name="Path 138522" d="M546.728,152.391h0l-34.341-.037a.419.419,0,0,1,0-.824h0l34.341.037a.419.419,0,0,1,0,.824Z" transform="translate(-428.084 -137.735)" fill="#353148" opacity="0.69"/>
                        <path id="Path_138523" data-name="Path 138523" d="M514.722,164.44h0l-30.363-.037a.419.419,0,0,1,0-.824h0l30.363.037a.419.419,0,0,1,0,.824Z" transform="translate(-425.085 -139.848)" fill="#353148" opacity="0.69"/>
                        <path id="Path_138524" data-name="Path 138524" d="M553.115,164.516h0l-20.053-.037a.419.419,0,0,1,0-.824h0l20.053.037a.419.419,0,0,1,0,.824Z" transform="translate(-434.47 -139.861)" fill="#353148" opacity="0.69"/>
                        <path id="Path_138692" data-name="Path 138692" d="M0,0H39.342V67.49H0Z" fill="#1e70b4"/>
                        <rect id="Rectangle_163248" data-name="Rectangle 163248" width="39.342" height="15.901" fill="#708cf5"/>
                      </g>
                    </g>
                  </g>
                  <g id="Group_306714" data-name="Group 306714" transform="translate(293.161 34.745)">
                    <g id="Group_306701" data-name="Group 306701" transform="translate(0 101.329)">
                      <path id="Path_138525" data-name="Path 138525" d="M481.985,291.678H415.052V231.734h66.933Zm-66.241-.824h65.55v-58.3H415.743Z" transform="translate(-413.761 -230.097)" fill="#121936"/>
                      <rect id="Rectangle_163249" data-name="Rectangle 163249" width="3.273" height="4.099" fill="#121936"/>
                      <rect id="Rectangle_163250" data-name="Rectangle 163250" width="3.273" height="4.099" transform="translate(66.14 0.152)" fill="#121936"/>
                      <rect id="Rectangle_163251" data-name="Rectangle 163251" width="3.273" height="4.099" transform="translate(0 59.117)" fill="#121936"/>
                      <rect id="Rectangle_163252" data-name="Rectangle 163252" width="3.273" height="4.099" transform="translate(66.14 59.117)" fill="#121936"/>
                      <g id="Group_306700" data-name="Group 306700" transform="translate(6.288 13.111)">
                        <path id="Path_138526" data-name="Path 138526" d="M450.59,250.661H424.381a2.331,2.331,0,0,1-2.1-2.506h0a2.331,2.331,0,0,1,2.1-2.507H450.59a2.33,2.33,0,0,1,2.1,2.507h0A2.33,2.33,0,0,1,450.59,250.661Z" transform="translate(-422.281 -245.648)" fill="#708cf5"/>
                        <path id="Path_138527" data-name="Path 138527" d="M450.59,275.537H424.381a2.331,2.331,0,0,1-2.1-2.506h0a2.331,2.331,0,0,1,2.1-2.507H450.59a2.33,2.33,0,0,1,2.1,2.507h0A2.33,2.33,0,0,1,450.59,275.537Z" transform="translate(-422.281 -250.01)" fill="#708cf5"/>
                        <path id="Path_138528" data-name="Path 138528" d="M464.4,262.658H448.148a2.331,2.331,0,0,1-2.1-2.506h0a2.331,2.331,0,0,1,2.1-2.507H464.4a2.331,2.331,0,0,1,2.1,2.507h0A2.332,2.332,0,0,1,464.4,262.658Z" transform="translate(-429.622 -247.752)" fill="#708cf5"/>
                        <path id="Path_138529" data-name="Path 138529" d="M481.87,250.661h-8.44a2.331,2.331,0,0,1-2.1-2.506h0a2.331,2.331,0,0,1,2.1-2.507h8.44a2.331,2.331,0,0,1,2.1,2.507h0A2.33,2.33,0,0,1,481.87,250.661Z" transform="translate(-437.431 -245.648)" fill="#708cf5"/>
                        <path id="Path_138530" data-name="Path 138530" d="M448.3,289.23H424.381a2.331,2.331,0,0,1-2.1-2.506h0a2.331,2.331,0,0,1,2.1-2.507H448.3a2.331,2.331,0,0,1,2.1,2.507h0A2.33,2.33,0,0,1,448.3,289.23Z" transform="translate(-422.281 -252.411)" fill="#708cf5"/>
                        <path id="Path_138531" data-name="Path 138531" d="M477.214,289.23h-7.486a2.331,2.331,0,0,1-2.1-2.506h0a2.331,2.331,0,0,1,2.1-2.507h7.486a2.331,2.331,0,0,1,2.1,2.507h0A2.33,2.33,0,0,1,477.214,289.23Z" transform="translate(-436.288 -252.411)" fill="#708cf5"/>
                        <path id="Path_138532" data-name="Path 138532" d="M432.821,262.662h-8.44a2.331,2.331,0,0,1-2.1-2.506h0a2.331,2.331,0,0,1,2.1-2.507h8.44a2.331,2.331,0,0,1,2.1,2.507h0A2.33,2.33,0,0,1,432.821,262.662Z" transform="translate(-422.281 -247.752)" fill="#708cf5"/>
                      </g>
                    </g>
                    <g id="Group_306704" data-name="Group 306704" transform="translate(1.225 179.059)">
                      <rect id="Rectangle_163253" data-name="Rectangle 163253" width="61.843" height="41.402" rx="1.431" fill="#398eff"/>
                      <g id="Group_306703" data-name="Group 306703" transform="translate(4.879 7.879)">
                        <circle id="Ellipse_4757" data-name="Ellipse 4757" cx="8.892" cy="8.892" r="8.892" transform="translate(0 0)" fill="#fff"/>
                        <g id="Group_306702" data-name="Group 306702" transform="translate(23.186 1.924)">
                          <path id="Path_138533" data-name="Path 138533" d="M481.634,336.719H458.983a.419.419,0,0,1,0-.824h22.651a.419.419,0,0,1,0,.824Z" transform="translate(-456.515 -335.895)" fill="#fff"/>
                          <path id="Path_138534" data-name="Path 138534" d="M491.693,355.4H479.212a.419.419,0,0,1,0-.824h12.481a.419.419,0,0,1,0,.824Z" transform="translate(-462.763 -339.171)" fill="#fff"/>
                          <path id="Path_138535" data-name="Path 138535" d="M469.292,362.152H456.81a.419.419,0,0,1,0-.824h12.482a.419.419,0,0,1,0,.824Z" transform="translate(-455.844 -340.355)" fill="#fff"/>
                          <path id="Path_138536" data-name="Path 138536" d="M470.808,348.9h-14a.419.419,0,0,1,0-.824h14a.419.419,0,0,1,0,.824Z" transform="translate(-455.844 -338.031)" fill="#fff"/>
                          <path id="Path_138537" data-name="Path 138537" d="M492.123,348.9h-9.191a.419.419,0,0,1,0-.824h9.191a.419.419,0,0,1,0,.824Z" transform="translate(-463.912 -338.031)" fill="#9dd3ff"/>
                          <path id="Path_138538" data-name="Path 138538" d="M465.049,355.4h-9.141a.419.419,0,0,1,0-.824h9.141a.419.419,0,0,1,0,.824Z" transform="translate(-455.565 -339.171)" fill="#9dd3ff"/>
                        </g>
                      </g>
                    </g>
                    <g id="Group_306707" data-name="Group 306707" transform="translate(70.131 171.806)">
                      <rect id="Rectangle_163254" data-name="Rectangle 163254" width="59.072" height="52.718" transform="translate(1.459 1.827)" fill="#fff"/>
                      <g id="Group_306705" data-name="Group 306705" opacity="0.48">
                        <path id="Path_138539" data-name="Path 138539" d="M576.034,370.471H516.27V316.929h59.763Zm-59.073-.824h58.381V317.754H516.961Z" transform="translate(-515.156 -315.513)" fill="#121936"/>
                        <rect id="Rectangle_163255" data-name="Rectangle 163255" width="2.919" height="3.655" fill="#121936"/>
                        <rect id="Rectangle_163256" data-name="Rectangle 163256" width="2.919" height="3.655" transform="translate(58.981 0.136)" fill="#121936"/>
                        <rect id="Rectangle_163257" data-name="Rectangle 163257" width="2.919" height="3.655" transform="translate(0 52.718)" fill="#121936"/>
                        <rect id="Rectangle_163258" data-name="Rectangle 163258" width="2.919" height="3.655" transform="translate(58.981 52.718)" fill="#121936"/>
                      </g>
                      <g id="Group_306706" data-name="Group 306706" transform="translate(7.781 9.838)">
                        <path id="Path_138540" data-name="Path 138540" d="M554.226,332.156H528.018a2.331,2.331,0,0,1-2.1-2.507h0a2.331,2.331,0,0,1,2.1-2.507h26.209a2.331,2.331,0,0,1,2.1,2.507h0A2.331,2.331,0,0,1,554.226,332.156Z" transform="translate(-525.917 -327.142)" fill="#60a6df"/>
                        <path id="Path_138541" data-name="Path 138541" d="M554.226,357.03H528.018a2.33,2.33,0,0,1-2.1-2.506h0a2.331,2.331,0,0,1,2.1-2.507h26.209a2.331,2.331,0,0,1,2.1,2.507h0A2.33,2.33,0,0,1,554.226,357.03Z" transform="translate(-525.917 -331.504)" fill="#60a6df"/>
                        <path id="Path_138542" data-name="Path 138542" d="M568.036,344.152H551.787a2.331,2.331,0,0,1-2.1-2.507h0a2.331,2.331,0,0,1,2.1-2.506h16.25a2.331,2.331,0,0,1,2.1,2.506h0A2.332,2.332,0,0,1,568.036,344.152Z" transform="translate(-533.259 -329.245)" fill="#60a6df"/>
                        <path id="Path_138543" data-name="Path 138543" d="M585.506,332.156h-8.44a2.331,2.331,0,0,1-2.1-2.507h0a2.331,2.331,0,0,1,2.1-2.507h8.44a2.331,2.331,0,0,1,2.1,2.507h0A2.331,2.331,0,0,1,585.506,332.156Z" transform="translate(-541.068 -327.142)" fill="#60a6df"/>
                        <path id="Path_138544" data-name="Path 138544" d="M551.932,370.725H528.018a2.331,2.331,0,0,1-2.1-2.507h0a2.331,2.331,0,0,1,2.1-2.507h23.914a2.331,2.331,0,0,1,2.1,2.507h0A2.33,2.33,0,0,1,551.932,370.725Z" transform="translate(-525.917 -333.905)" fill="#60a6df"/>
                        <path id="Path_138545" data-name="Path 138545" d="M580.851,370.725h-7.486a2.331,2.331,0,0,1-2.1-2.507h0a2.331,2.331,0,0,1,2.1-2.507h7.486a2.331,2.331,0,0,1,2.1,2.507h0A2.331,2.331,0,0,1,580.851,370.725Z" transform="translate(-539.924 -333.905)" fill="#f9cad0"/>
                        <path id="Path_138546" data-name="Path 138546" d="M536.458,344.156h-8.44a2.331,2.331,0,0,1-2.1-2.507h0a2.331,2.331,0,0,1,2.1-2.506h8.44a2.33,2.33,0,0,1,2.1,2.506h0A2.331,2.331,0,0,1,536.458,344.156Z" transform="translate(-525.917 -329.246)" fill="#60a6df"/>
                      </g>
                    </g>
                    <g id="Group_306709" data-name="Group 306709" transform="translate(85.442 0)">
                      <rect id="Rectangle_163259" data-name="Rectangle 163259" width="45.981" height="48.496" rx="5" fill="#398eff"/>
                    </g>
                    <g id="Group_306713" data-name="Group 306713" transform="translate(57.502 108.696)">
                      <rect id="Rectangle_163260" data-name="Rectangle 163260" width="102.414" height="48.496" rx="1.431" fill="#398eff"/>
                      <g id="Group_306710" data-name="Group 306710" transform="translate(3.628 3.312)">
                        <path id="Path_138549" data-name="Path 138549" d="M505.167,247.327a.317.317,0,0,1-.244-.12l-3.187-3.8a.471.471,0,0,1,0-.583.308.308,0,0,1,.489,0l3.187,3.8a.471.471,0,0,1,0,.583A.321.321,0,0,1,505.167,247.327Z" transform="translate(-501.634 -242.7)" fill="#fff"/>
                        <path id="Path_138550" data-name="Path 138550" d="M501.98,247.327a.321.321,0,0,1-.245-.12.471.471,0,0,1,0-.583l3.187-3.8a.308.308,0,0,1,.489,0,.471.471,0,0,1,0,.583l-3.187,3.8A.317.317,0,0,1,501.98,247.327Z" transform="translate(-501.634 -242.7)" fill="#fff"/>
                      </g>
                      <g id="Group_306711" data-name="Group 306711" transform="translate(9.967 17.002)">
                        <path id="Path_138551" data-name="Path 138551" d="M533.95,260.124h-22.8a.419.419,0,0,1,0-.824h22.8a.419.419,0,0,1,0,.824Z" transform="translate(-510.807 -259.3)" fill="#fff"/>
                        <path id="Path_138552" data-name="Path 138552" d="M573.04,260.124H552.717a.419.419,0,0,1,0-.824H573.04a.419.419,0,0,1,0,.824Z" transform="translate(-523.646 -259.3)" fill="#fff"/>
                        <path id="Path_138553" data-name="Path 138553" d="M531.472,278.7H511.15a.419.419,0,0,1,0-.824h20.322a.419.419,0,0,1,0,.824Z" transform="translate(-510.807 -262.558)" fill="#fff"/>
                        <path id="Path_138554" data-name="Path 138554" d="M559.3,268.89H538.98a.419.419,0,0,1,0-.824H559.3a.419.419,0,0,1,0,.824Z" transform="translate(-519.403 -260.838)" fill="#fff"/>
                        <path id="Path_138555" data-name="Path 138555" d="M524.49,268.89H511.15a.419.419,0,0,1,0-.824h13.34a.419.419,0,0,1,0,.824Z" transform="translate(-510.807 -260.838)" fill="#fff"/>
                        <path id="Path_138556" data-name="Path 138556" d="M557.8,278.7h-8.2a.419.419,0,0,1,0-.824h8.2a.419.419,0,0,1,0,.824Z" transform="translate(-522.685 -262.558)" fill="#fff"/>
                      </g>
                      <g id="Group_306712" data-name="Group 306712" transform="translate(53.866 17.002)">
                        <path id="Path_138557" data-name="Path 138557" d="M597.471,260.124h-22.8a.419.419,0,0,1,0-.824h22.8a.419.419,0,0,1,0,.824Z" transform="translate(-574.327 -259.3)" fill="#fff"/>
                        <path id="Path_138558" data-name="Path 138558" d="M616.478,260.124H598.412a.419.419,0,0,1,0-.824h18.066a.419.419,0,0,1,0,.824Z" transform="translate(-581.66 -259.3)" fill="#fff"/>
                        <path id="Path_138559" data-name="Path 138559" d="M594.993,278.7H574.67a.419.419,0,0,1,0-.824h20.323a.419.419,0,0,1,0,.824Z" transform="translate(-574.327 -262.558)" fill="#fff"/>
                        <path id="Path_138560" data-name="Path 138560" d="M622.824,268.89H602.5a.419.419,0,0,1,0-.824h20.324a.419.419,0,0,1,0,.824Z" transform="translate(-582.924 -260.838)" fill="#fff"/>
                        <path id="Path_138561" data-name="Path 138561" d="M588.011,268.89H574.67a.419.419,0,0,1,0-.824h13.341a.419.419,0,0,1,0,.824Z" transform="translate(-574.327 -260.838)" fill="#fff"/>
                        <path id="Path_138562" data-name="Path 138562" d="M621.319,278.7h-8.2a.419.419,0,0,1,0-.824h8.2a.419.419,0,0,1,0,.824Z" transform="translate(-586.203 -262.558)" fill="#fff"/>
                      </g>
                    </g>
                  </g>
                  <g id="Group_306731" data-name="Group 306731" transform="translate(0 38.126)">
                    <g id="Group_306719" data-name="Group 306719" transform="translate(59.021 97.562)">
                      <path id="Path_138563" data-name="Path 138563" d="M223,262.6H185.639V230.589H223Zm-36.674-.824h35.982V231.413H186.33Z" transform="translate(-184.733 -229.51)" fill="#fff"/>
                      <rect id="Rectangle_163261" data-name="Rectangle 163261" width="1.812" height="2.162" transform="translate(0.345 0.412)" fill="#121936"/>
                      <path id="Path_138564" data-name="Path 138564" d="M186.831,232.268h-2.5v-2.987h2.5Zm-1.812-.824h1.12v-1.338h-1.12Z" transform="translate(-184.328 -229.281)" fill="#fff"/>
                      <g id="Group_306716" data-name="Group 306716" transform="translate(36.616 0.08)">
                        <rect id="Rectangle_163262" data-name="Rectangle 163262" width="1.812" height="2.162" transform="translate(0.345 0.412)" fill="#121936"/>
                        <path id="Path_138565" data-name="Path 138565" d="M239.813,232.365h-2.5v-2.987h2.5ZM238,231.541h1.121V230.2H238Z" transform="translate(-237.31 -229.378)" fill="#fff"/>
                      </g>
                      <g id="Group_306717" data-name="Group 306717" transform="translate(0 31.187)">
                        <rect id="Rectangle_163263" data-name="Rectangle 163263" width="1.812" height="2.162" transform="translate(0.345 0.411)" fill="#121936"/>
                        <path id="Path_138566" data-name="Path 138566" d="M186.831,270.085h-2.5V267.1h2.5Zm-1.812-.824h1.12v-1.337h-1.12Z" transform="translate(-184.328 -267.1)" fill="#fff"/>
                      </g>
                      <g id="Group_306718" data-name="Group 306718" transform="translate(36.616 31.187)">
                        <rect id="Rectangle_163264" data-name="Rectangle 163264" width="1.812" height="2.162" transform="translate(0.345 0.411)" fill="#121936"/>
                        <path id="Path_138567" data-name="Path 138567" d="M239.813,270.085h-2.5V267.1h2.5ZM238,269.261h1.121v-1.337H238Z" transform="translate(-237.31 -267.1)" fill="#fff"/>
                      </g>
                    </g>
                    <g id="Group_306721" data-name="Group 306721" transform="translate(0 97.982)">
                      <path id="Path_138568" data-name="Path 138568" d="M171.554,279.477H120.112a1.38,1.38,0,0,1-1.235-.91l-19.3-45.887a1.658,1.658,0,0,1,1.235-2.389h51.76a1.382,1.382,0,0,1,1.24.92l18.98,45.888A1.654,1.654,0,0,1,171.554,279.477Z" transform="translate(-99.083 -229.878)" fill="#fff"/>
                      <path id="Path_138569" data-name="Path 138569" d="M171.4,279.8H119.956a1.715,1.715,0,0,1-1.544-1.135l-19.3-45.89a2.4,2.4,0,0,1,.074-2.006,1.677,1.677,0,0,1,1.471-.979h51.76a1.715,1.715,0,0,1,1.549,1.15l18.982,45.887a2.4,2.4,0,0,1-.082,2,1.676,1.676,0,0,1-1.467.973Zm-70.742-49.185a1.006,1.006,0,0,0-.882.587,1.435,1.435,0,0,0-.044,1.2l19.3,45.888a1.028,1.028,0,0,0,.925.682H171.4a1,1,0,0,0,.88-.583,1.44,1.44,0,0,0,.049-1.2L153.348,231.3a1.029,1.029,0,0,0-.929-.69Z" transform="translate(-98.929 -229.79)" fill="#121936"/>
                      <path id="Path_138570" data-name="Path 138570" d="M200.322,279.845a2.828,2.828,0,0,0-2.551-3.043H170.252l-17.988-43a.689.689,0,0,0-.618-.456h-50.9a.829.829,0,0,0-.619,1.192l19.1,45.747a.688.688,0,0,0,.621.457l50.83-.265c.013,0,.023-.005.036-.006h29.609Z" transform="translate(-99.27 -230.415)" fill="#195382"/>
                      <path id="Path_138571" data-name="Path 138571" d="M.085,0H3.314A.085.085,0,0,1,3.4.085V.929a.086.086,0,0,1-.086.086H.085A.085.085,0,0,1,0,.929V.085A.085.085,0,0,1,.085,0Z" transform="translate(74.116 47.848)" fill="#fff"/>
                      <path id="Path_138572" data-name="Path 138572" d="M.085,0H3.314A.085.085,0,0,1,3.4.085V.929a.086.086,0,0,1-.086.086H.086A.086.086,0,0,1,0,.929V.085A.085.085,0,0,1,.085,0Z" transform="translate(79.975 47.848)" fill="#fff"/>
                      <g id="Group_306720" data-name="Group 306720" transform="translate(28.724 20.564)">
                        <path id="Path_138573" data-name="Path 138573" d="M148.912,264.68c-1.488,1.775-4.265,1.345-6.2-.965s-2.3-5.623-.809-7.4,4.265-1.344,6.2.965S150.4,262.9,148.912,264.68Z" transform="translate(-140.644 -254.814)" fill="#fff"/>
                        <path id="Path_138574" data-name="Path 138574" d="M146.4,266.094a5.525,5.525,0,0,1-4.081-2.175c-2.067-2.466-2.431-6.047-.809-7.982s4.622-1.5,6.69.965,2.43,6.048.809,7.983A3.326,3.326,0,0,1,146.4,266.094Zm-2.279-10.549a2.7,2.7,0,0,0-2.123.975c-1.352,1.613-.989,4.67.809,6.816s4.361,2.579,5.713.967.988-4.671-.809-6.817a4.9,4.9,0,0,0-3.589-1.94Z" transform="translate(-140.491 -254.727)" fill="#121936"/>
                      </g>
                      <path id="Path_138575" data-name="Path 138575" d="M146.377,267.229a7,7,0,0,1-5.155-2.759c-2.6-3.106-3.079-7.593-1.062-10s5.778-1.838,8.381,1.268,3.08,7.593,1.062,10A4.105,4.105,0,0,1,146.377,267.229Zm-3-13.843a3.783,3.783,0,0,0-2.979,1.376c-1.883,2.247-1.407,6.471,1.062,9.416a7.056,7.056,0,0,0,4.189,2.586,3.867,3.867,0,0,0,3.7-1.318,5.817,5.817,0,0,0,1.1-4.42,9.492,9.492,0,0,0-2.167-5,7.057,7.057,0,0,0-4.188-2.586,4.706,4.706,0,0,0-.725-.056Z" transform="translate(-111.278 -233.856)" fill="#fff"/>
                    </g>
                    <g id="Group_306725" data-name="Group 306725" transform="translate(22.51)">
                      <g id="Group_306723" data-name="Group 306723" transform="translate(49.187 98.219)">
                        <rect id="Rectangle_163265" data-name="Rectangle 163265" width="18.831" height="18.831" rx="3" transform="translate(0 0)" fill="#398eff"/>
                      </g>
                      <g id="Group_306764" data-name="Group 306764" transform="translate(19.895 56.373)">
                        <rect id="Rectangle_163265-2" data-name="Rectangle 163265" width="18.831" height="18.831" rx="3" transform="translate(0 0)" fill="#398eff"/>
                      </g>
                      <path id="Path_138578" data-name="Path 138578" d="M231.379,163.45a1.639,1.639,0,1,1-1.613-1.926A1.79,1.79,0,0,1,231.379,163.45Z" transform="translate(-161.344 -119.837)" fill="#f9cad0"/>
                      <path id="Path_138579" data-name="Path 138579" d="M142.926,204.821a.82.82,0,1,1-.806-.962A.9.9,0,0,1,142.926,204.821Z" transform="translate(-134.525 -127.261)" fill="#f8f8f6"/>
                      <path id="Path_138580" data-name="Path 138580" d="M164.3,172.358a.819.819,0,1,1-.806-.962A.894.894,0,0,1,164.3,172.358Z" transform="translate(-141.129 -121.569)" fill="#f8f8f6"/>
                      <path id="Path_138581" data-name="Path 138581" d="M175.853,111.935a.82.82,0,1,1-.806-.962A.9.9,0,0,1,175.853,111.935Z" transform="translate(-144.696 -110.973)" fill="#f8f8f6"/>
                      <path id="Path_138582" data-name="Path 138582" d="M133.124,141.363a.82.82,0,1,1-.806-.962A.9.9,0,0,1,133.124,141.363Z" transform="translate(-131.498 -116.133)" fill="#f8f8f6" opacity="0.49"/>
                      <path id="Path_138583" data-name="Path 138583" d="M201.36,148.359a.82.82,0,1,1-.806-.962.9.9,0,0,1,.806.962Z" transform="translate(-152.574 -117.36)" fill="#f8f8f6" opacity="0.49"/>
                    </g>
                    <g id="Group_306730" data-name="Group 306730" transform="translate(13.802 147.712)">
                      <path id="Path_138585" data-name="Path 138585" d="M122.164,414.625a2.5,2.5,0,0,1-1.913-.94,3.562,3.562,0,0,1-.805-2.29l-.423-110.144a3.573,3.573,0,0,1,.788-2.3,2.507,2.507,0,0,1,1.919-.961l98.412-.538h.012a3.02,3.02,0,0,1,2.719,3.233L223.3,410.83a3.571,3.571,0,0,1-.787,2.3,2.507,2.507,0,0,1-1.919.961l-98.411.535Zm97.989-116.344h-.009l-98.412.538a1.872,1.872,0,0,0-1.431.717,2.662,2.662,0,0,0-.588,1.715l.423,110.144a2.652,2.652,0,0,0,.6,1.707,1.863,1.863,0,0,0,1.426.7h.01l98.411-.538a1.87,1.87,0,0,0,1.431-.718,2.657,2.657,0,0,0,.587-1.711l-.422-110.144A2.251,2.251,0,0,0,220.153,298.281Z" transform="translate(-118.938 -291.384)" fill="#121936"/>
                      <path id="Path_138586" data-name="Path 138586" d="M220.709,307.736l.392,101.952a2.639,2.639,0,0,1-2.363,2.845l-91.114.5a2.628,2.628,0,0,1-2.384-2.819l-.391-101.952a2.638,2.638,0,0,1,2.363-2.845l91.114-.5A2.629,2.629,0,0,1,220.709,307.736Z" transform="translate(-120.737 -292.693)" fill="#fff"/>
                      <path id="Path_138587" data-name="Path 138587" d="M222.81,292.932l.026,6.817-103.91.571-.026-6.957a2.529,2.529,0,0,1,2.261-2.726l99.249-.542A2.645,2.645,0,0,1,222.81,292.932Z" transform="translate(-118.9 -290.095)" fill="#60a6df"/>
                      <path id="Path_138588" data-name="Path 138588" d="M125.2,298.076a1.989,1.989,0,1,1,1.641-1.959,1.823,1.823,0,0,1-1.641,1.959Zm0-3.3a1.361,1.361,0,1,0,1.123,1.34,1.246,1.246,0,0,0-1.123-1.342Z" transform="translate(-120.061 -290.793)" fill="#fff"/>
                      <path id="Path_138589" data-name="Path 138589" d="M133.55,298.076a1.989,1.989,0,1,1,1.641-1.959A1.824,1.824,0,0,1,133.55,298.076Zm0-3.3a1.361,1.361,0,1,0,1.123,1.34,1.247,1.247,0,0,0-1.123-1.342Z" transform="translate(-122.64 -290.793)" fill="#fff"/>
                      <path id="Path_138590" data-name="Path 138590" d="M141.67,298.076a1.989,1.989,0,1,1,1.641-1.959A1.823,1.823,0,0,1,141.67,298.076Zm0-3.3a1.361,1.361,0,1,0,1.123,1.34,1.246,1.246,0,0,0-1.123-1.342Z" transform="translate(-125.148 -290.793)" fill="#fff"/>
                      <path id="Path_138591" data-name="Path 138591" d="M175.7,345.7h-35.55a.419.419,0,0,1,0-.824H175.7a.419.419,0,0,1,0,.824Z" transform="translate(-125.358 -299.701)" fill="#599af2"/>
                      <g id="Group_306726" data-name="Group 306726" transform="translate(14.446 26.837)">
                        <path id="Path_138592" data-name="Path 138592" d="M185.879,323.463h-45.73a.419.419,0,0,1,0-.824h45.73a.419.419,0,0,1,0,.824Z" transform="translate(-139.804 -322.639)" fill="#708cf5"/>
                        <path id="Path_138593" data-name="Path 138593" d="M224.131,323.463H214.64a.419.419,0,0,1,0-.824h9.491a.419.419,0,0,1,0,.824Z" transform="translate(-162.814 -322.639)" fill="#353148" opacity="0.69"/>
                        <path id="Path_138594" data-name="Path 138594" d="M185.879,370.052h-45.73a.419.419,0,0,1,0-.824h45.73a.419.419,0,0,1,0,.824Z" transform="translate(-139.804 -330.809)" fill="#708cf5"/>
                        <path id="Path_138595" data-name="Path 138595" d="M224.131,370.052H214.64a.419.419,0,0,1,0-.824h9.491a.419.419,0,0,1,0,.824Z" transform="translate(-162.814 -330.809)" fill="#599af2"/>
                        <path id="Path_138596" data-name="Path 138596" d="M224.131,345.7H214.64a.419.419,0,0,1,0-.824h9.491a.419.419,0,0,1,0,.824Z" transform="translate(-162.814 -326.538)" fill="#708cf5"/>
                        <path id="Path_138597" data-name="Path 138597" d="M246.742,345.7h-9.491a.419.419,0,0,1,0-.824h9.491a.419.419,0,0,1,0,.824Z" transform="translate(-169.798 -326.538)" fill="#353148" opacity="0.69"/>
                        <path id="Path_138598" data-name="Path 138598" d="M170.636,334.4H140.149a.419.419,0,0,1,0-.824h30.486a.419.419,0,0,1,0,.824Z" transform="translate(-139.804 -324.557)" fill="#353148" opacity="0.69"/>
                        <path id="Path_138599" data-name="Path 138599" d="M205.749,334.4H192.374a.419.419,0,0,1,0-.824h13.375a.419.419,0,0,1,0,.824Z" transform="translate(-155.936 -324.557)" fill="#f7a9b4"/>
                        <path id="Path_138600" data-name="Path 138600" d="M198.1,357.835H167.615a.419.419,0,0,1,0-.824H198.1a.419.419,0,0,1,0,.824Z" transform="translate(-148.288 -328.666)" fill="#353148" opacity="0.69"/>
                        <path id="Path_138601" data-name="Path 138601" d="M153.521,357.835H140.146a.419.419,0,0,1,0-.824h13.375a.419.419,0,0,1,0,.824Z" transform="translate(-139.803 -328.666)" fill="#f7a9b4"/>
                        <path id="Path_138602" data-name="Path 138602" d="M185.879,385.758h-45.73a.419.419,0,0,1,0-.824h45.73a.419.419,0,0,1,0,.824Z" transform="translate(-139.804 -333.563)" fill="#f7a9b4"/>
                        <path id="Path_138603" data-name="Path 138603" d="M224.131,385.758H214.64a.419.419,0,0,1,0-.824h9.491a.419.419,0,0,1,0,.824Z" transform="translate(-162.814 -333.563)" fill="#353148" opacity="0.69"/>
                        <path id="Path_138604" data-name="Path 138604" d="M185.879,407.993h-45.73a.419.419,0,0,1,0-.824h45.73a.419.419,0,0,1,0,.824Z" transform="translate(-139.804 -337.462)" fill="#599af2"/>
                        <path id="Path_138605" data-name="Path 138605" d="M224.131,407.993H214.64a.419.419,0,0,1,0-.824h9.491a.419.419,0,0,1,0,.824Z" transform="translate(-162.813 -337.462)" fill="#708cf5"/>
                        <path id="Path_138606" data-name="Path 138606" d="M246.742,407.993h-9.491a.419.419,0,0,1,0-.824h9.491a.419.419,0,0,1,0,.824Z" transform="translate(-169.798 -337.462)" fill="#353148" opacity="0.69"/>
                        <path id="Path_138607" data-name="Path 138607" d="M170.636,396.7H140.149a.419.419,0,0,1,0-.824h30.486a.419.419,0,0,1,0,.824Z" transform="translate(-139.804 -335.481)" fill="#353148" opacity="0.69"/>
                        <path id="Path_138608" data-name="Path 138608" d="M205.749,396.7H192.374a.419.419,0,0,1,0-.824h13.375a.419.419,0,0,1,0,.824Z" transform="translate(-155.936 -335.481)" fill="#f7a9b4"/>
                        <path id="Path_138609" data-name="Path 138609" d="M198.1,420.124H167.615a.419.419,0,0,1,0-.824H198.1a.419.419,0,0,1,0,.824Z" transform="translate(-148.288 -339.588)" fill="#353148" opacity="0.69"/>
                        <path id="Path_138610" data-name="Path 138610" d="M153.521,420.124H140.146a.419.419,0,0,1,0-.824h13.375a.419.419,0,0,1,0,.824Z" transform="translate(-139.803 -339.588)" fill="#f7a9b4"/>
                      </g>
                      <g id="Group_306729" data-name="Group 306729" transform="translate(59.405 86.638)">
                        <rect id="Rectangle_163266" data-name="Rectangle 163266" width="69.651" height="36.978" rx="4.626" transform="translate(69.651 36.978) rotate(180)" fill="#1e70b4"/>
                        <g id="Group_306727" data-name="Group 306727" transform="translate(15.29 9.526)">
                          <path id="Path_138611" data-name="Path 138611" d="M272.01,417.586H249.984a.419.419,0,0,1,0-.824H272.01a.419.419,0,0,1,0,.824Z" transform="translate(-233.98 -408.47)" fill="#fff"/>
                          <path id="Path_138612" data-name="Path 138612" d="M250.228,407.531H228.2a.419.419,0,0,1,0-.824h22.027a.419.419,0,0,1,0,.824Z" transform="translate(-227.252 -406.707)" fill="#fff"/>
                          <path id="Path_138613" data-name="Path 138613" d="M283.771,407.531H269.312a.419.419,0,0,1,0-.824h14.459a.419.419,0,0,1,0,.824Z" transform="translate(-239.95 -406.707)" fill="#9dd3ff"/>
                          <path id="Path_138614" data-name="Path 138614" d="M250.228,427.224H228.2a.419.419,0,0,1,0-.824h22.027a.419.419,0,0,1,0,.824Z" transform="translate(-227.252 -410.16)" fill="#fff"/>
                          <path id="Path_138615" data-name="Path 138615" d="M278.836,427.224h-9.524a.419.419,0,0,1,0-.824h9.524a.419.419,0,0,1,0,.824Z" transform="translate(-239.95 -410.16)" fill="#9dd3ff"/>
                          <path id="Path_138616" data-name="Path 138616" d="M236.212,417.586h-8.889a.419.419,0,0,1,0-.824h8.889a.419.419,0,0,1,0,.824Z" transform="translate(-226.98 -408.47)" fill="#9dd3ff"/>
                        </g>
                        <g id="Group_306728" data-name="Group 306728" transform="translate(4.018 4.234)">
                          <path id="Path_138617" data-name="Path 138617" d="M214.2,404.918a.317.317,0,0,1-.244-.12l-3.187-3.8a.471.471,0,0,1,0-.583.307.307,0,0,1,.489,0l3.187,3.8a.471.471,0,0,1,0,.583A.321.321,0,0,1,214.2,404.918Z" transform="translate(-210.669 -400.29)" fill="#fff"/>
                          <path id="Path_138618" data-name="Path 138618" d="M211.015,404.918a.321.321,0,0,1-.245-.12.471.471,0,0,1,0-.583l3.187-3.8a.307.307,0,0,1,.489,0,.471.471,0,0,1,0,.583l-3.187,3.8A.317.317,0,0,1,211.015,404.918Z" transform="translate(-210.669 -400.29)" fill="#fff"/>
                        </g>
                      </g>
                    </g>
                  </g>
                  <g id="Group_306760" data-name="Group 306760" transform="translate(87.452 14.123)">
                    <g id="Group_306733" data-name="Group 306733" transform="translate(110.899 22.477)">
                      <path id="Path_138619" data-name="Path 138619" d="M411.608,174.173h-67.4a3.127,3.127,0,0,1-3.114-3.14V112.262a3.127,3.127,0,0,1,3.114-3.14h67.4a3.127,3.127,0,0,1,3.114,3.14v58.771A3.127,3.127,0,0,1,411.608,174.173Z" transform="translate(-340.697 -109.122)" fill="#fff"/>
                      <path id="Path_138620" data-name="Path 138620" d="M411.453,176.92h-67.4a3.45,3.45,0,0,1-3.46-3.432V122.822l74.319-.387v51.053a3.45,3.45,0,0,1-3.46,3.432Zm-70.167-53.277v49.845a2.7,2.7,0,0,0,2.77,2.608h67.4a2.7,2.7,0,0,0,2.769-2.608V123.263Z" transform="translate(-340.542 -111.457)" fill="#121936"/>
                      <path id="Path_138621" data-name="Path 138621" d="M340.519,121.287v-9.079a3.115,3.115,0,0,1,3.144-3.086h68.03a3.115,3.115,0,0,1,3.143,3.086v8.684" transform="translate(-340.519 -109.122)" fill="#398eff"/>
                      <path id="Path_138622" data-name="Path 138622" d="M347.651,118.082a1.9,1.9,0,1,1,1.5-1.858A1.712,1.712,0,0,1,347.651,118.082Zm0-2.891a1.064,1.064,0,1,0,.812,1.033A.945.945,0,0,0,347.651,115.191Z" transform="translate(-341.939 -110.02)" fill="#fff"/>
                      <path id="Path_138623" data-name="Path 138623" d="M353.935,118.082a1.9,1.9,0,1,1,1.5-1.858,1.712,1.712,0,0,1-1.5,1.858Zm0-2.891a1.064,1.064,0,1,0,.812,1.033.945.945,0,0,0-.812-1.033Z" transform="translate(-343.881 -110.02)" fill="#fff"/>
                      <path id="Path_138624" data-name="Path 138624" d="M360.1,118.082a1.9,1.9,0,1,1,1.5-1.858,1.712,1.712,0,0,1-1.5,1.858Zm0-2.891a1.064,1.064,0,1,0,.812,1.033.945.945,0,0,0-.812-1.033Z" transform="translate(-345.785 -110.02)" fill="#fff"/>
                      <g id="Group_306732" data-name="Group 306732" transform="translate(3.377 13.642)" opacity="0.31">
                        <path id="Path_138625" data-name="Path 138625" d="M410.641,173.045h-62.8a2.7,2.7,0,0,1-2.435-2.9V128.569a2.7,2.7,0,0,1,2.435-2.9h62.8a2.7,2.7,0,0,1,2.434,2.9V170.14A2.7,2.7,0,0,1,410.641,173.045Zm-62.8-46.555a1.936,1.936,0,0,0-1.744,2.08V170.14a1.936,1.936,0,0,0,1.744,2.08h62.8a1.936,1.936,0,0,0,1.743-2.08V128.569a1.936,1.936,0,0,0-1.743-2.08Z" transform="translate(-345.405 -125.665)" fill="#103463"/>
                        <path id="Path_138626" data-name="Path 138626" d="M373.678,169.829h-17.3v-23.6h17.3ZM357.07,169h15.916V147.05H357.071Z" transform="translate(-348.795 -129.27)" fill="#353148" opacity="0.69"/>
                        <path id="Path_138627" data-name="Path 138627" d="M373.487,142.131H356.879v-8.039h16.608Z" transform="translate(-348.949 -127.143)" fill="#708cf5"/>
                        <path id="Path_138628" data-name="Path 138628" d="M393.571,152.5V134.092h26.575V152.5Z" transform="translate(-360.283 -127.143)" fill="#708cf5"/>
                        <path id="Path_138629" data-name="Path 138629" d="M373.371,142.131H356.763v-8.039h16.608Z" transform="translate(-348.914 -127.143)" fill="#f9cad0"/>
                        <path id="Path_138630" data-name="Path 138630" d="M393.455,152.5V134.092H420.03V152.5Z" transform="translate(-360.247 -127.143)" fill="#f9cad0"/>
                        <path id="Path_138631" data-name="Path 138631" d="M420.337,173.733H393.07v-11.2h27.267Zm-26.576-.824h25.884v-9.548H393.761Z" transform="translate(-360.128 -132.131)" fill="#353148" opacity="0.69"/>
                      </g>
                      <path id="Path_138632" data-name="Path 138632" d="M373.371,142.131H356.763v-8.039h16.608Z" transform="translate(-345.536 -113.501)" fill="#60a6df"/>
                      <path id="Path_138633" data-name="Path 138633" d="M393.455,152.5V134.092H420.03V152.5Z" transform="translate(-356.87 -113.501)" fill="#60a6df"/>
                      <path id="Path_138634" data-name="Path 138634" d="M400.172,146.776a2.64,2.64,0,1,1,2.177-2.6A2.418,2.418,0,0,1,400.172,146.776Zm0-4.577a2.011,2.011,0,1,0,1.659,1.979A1.843,1.843,0,0,0,400.172,142.2Z" transform="translate(-358.198 -114.813)" fill="#fff"/>
                      <path id="Path_138635" data-name="Path 138635" d="M411.76,146.776a2.64,2.64,0,1,1,2.177-2.6A2.419,2.419,0,0,1,411.76,146.776Zm0-4.577a2.011,2.011,0,1,0,1.659,1.979A1.843,1.843,0,0,0,411.76,142.2Z" transform="translate(-361.778 -114.813)" fill="#fff"/>
                      <path id="Path_138636" data-name="Path 138636" d="M423.029,146.776a2.64,2.64,0,1,1,2.177-2.6A2.418,2.418,0,0,1,423.029,146.776Zm0-4.577a2.011,2.011,0,1,0,1.66,1.979A1.843,1.843,0,0,0,423.029,142.2Z" transform="translate(-365.259 -114.813)" fill="#fff"/>
                    </g>
                    <g id="Group_306759" data-name="Group 306759" transform="translate(0 0)">
                      <g id="Group_306737" data-name="Group 306737" transform="translate(27.932 123.465)">
                        <g id="Group_306734" data-name="Group 306734" transform="translate(2.487 90.349)">
                          <path id="Path_138637" data-name="Path 138637" d="M287.1,362.493l-2.248,2.994-12.728,17.484c-.842,1.158-2.437.453-2.445-1.078l-.19-38.481a1.7,1.7,0,0,1,1.559-1.847l15.1-.3Z" transform="translate(-269.481 -341.166)" fill="#195382"/>
                          <path id="Path_138638" data-name="Path 138638" d="M271.986,343.409a1.7,1.7,0,0,1,1.559-1.846l12.606-.254v-.05l-15.1.3a1.7,1.7,0,0,0-1.559,1.846l.19,38.481c.008,1.533,1.6,2.238,2.445,1.078l.228-.313a1.862,1.862,0,0,1-.175-.768Z" transform="translate(-269.482 -341.165)" fill="#121936"/>
                          <path id="Path_138639" data-name="Path 138639" d="M273.209,377.776a.38.38,0,0,1-.345-.408l-.33-35.806a.385.385,0,0,1,.342-.416h0a.38.38,0,0,1,.345.408l.33,35.806a.387.387,0,0,1-.342.417Z" transform="translate(-270.423 -341.145)" fill="#fff"/>
                          <path id="Path_138640" data-name="Path 138640" d="M282.455,354.124a2.577,2.577,0,0,1-.507-.05,3.581,3.581,0,0,1-2.461-4.137,3.7,3.7,0,0,1,1.223-2.324,2.622,2.622,0,0,1,2.243-.612,3.58,3.58,0,0,1,2.463,4.136A3.218,3.218,0,0,1,282.455,354.124Zm-.007-6.35a2.059,2.059,0,0,0-1.336.51,2.853,2.853,0,0,0-.941,1.79,2.758,2.758,0,0,0,1.9,3.187,2.4,2.4,0,0,0,2.67-2.263,3.169,3.169,0,0,0-.4-2.061,2.3,2.3,0,0,0-1.5-1.124A1.964,1.964,0,0,0,282.448,347.774Z" transform="translate(-272.559 -342.164)" fill="#fff"/>
                          <path id="Path_138641" data-name="Path 138641" d="M290.225,370.292a.312.312,0,0,1-.228-.1l-3-3.152a.468.468,0,0,1-.031-.581.307.307,0,0,1,.487-.037l3,3.152a.468.468,0,0,1,.031.581A.324.324,0,0,1,290.225,370.292Z" transform="translate(-274.855 -345.558)" fill="#fff"/>
                          <path id="Path_138642" data-name="Path 138642" d="M287.268,373.556a.313.313,0,0,1-.228-.1l-3-3.151a.468.468,0,0,1-.031-.581.307.307,0,0,1,.487-.037l3,3.151a.469.469,0,0,1,.031.581.323.323,0,0,1-.259.141Z" transform="translate(-273.942 -346.131)" fill="#fff"/>
                          <path id="Path_138643" data-name="Path 138643" d="M284.35,376.633a.317.317,0,0,1-.228-.1l-3-3.152a.468.468,0,0,1-.031-.581.308.308,0,0,1,.488-.037l3,3.152a.468.468,0,0,1,.031.581.325.325,0,0,1-.259.14Z" transform="translate(-273.041 -346.671)" fill="#fff"/>
                          <path id="Path_138644" data-name="Path 138644" d="M295.209,367.2c-1.287,0-2.681-.164-2.97-.809a.6.6,0,0,1,0-.458c.328-.833,4.03-2.789,4.606-2.929a1.493,1.493,0,0,1,1.3.3,2.219,2.219,0,0,1-.6,3.74A15.947,15.947,0,0,1,295.209,367.2Zm-2.191-1.078a11.714,11.714,0,0,0,4.381.112,1.331,1.331,0,0,0,.36-2.242.9.9,0,0,0-.778-.179,18.489,18.489,0,0,0-3.962,2.308Z" transform="translate(-276.497 -344.971)" fill="#fff"/>
                          <path id="Path_138645" data-name="Path 138645" d="M294.906,373.5a1.449,1.449,0,0,1-.4-.058,1.766,1.766,0,0,1-1.07-.924c-.193-.376-1.754-5.443-1.058-5.973a.578.578,0,0,1,.529-.086c1.042.285,3.116,3.213,3.469,3.9h0a2.391,2.391,0,0,1,.209,1.557,2.069,2.069,0,0,1-.775,1.277,1.521,1.521,0,0,1-.9.306Zm-2.05-6.208a23.947,23.947,0,0,0,1.165,4.793,1.061,1.061,0,0,0,.641.555.887.887,0,0,0,.782-.15,1.383,1.383,0,0,0,.34-1.7h0A13.263,13.263,0,0,0,292.856,367.294Z" transform="translate(-276.498 -345.578)" fill="#fff"/>
                        </g>
                        <path id="Path_138646" data-name="Path 138646" d="M339.416,261.07l-24.664-20.589c-.19-.145-15.231-1.093-15.231-1.093a1.427,1.427,0,0,0-.585-.006l-30.033-7.8-1.743,7.341a48.006,48.006,0,0,0,0,22l13.213,55.836-.4.332a2.268,2.268,0,0,0-.692,2.141l6.169,32.405c.282,1.482,1.767,2.1,2.761,1.15l.562-.539,7.593,32.086a.957.957,0,0,0,1.126.8l24.119-6.333a2.307,2.307,0,0,0,1.458-2.677l-8.273-48.79,26.389-25.254C352.482,291.282,351.583,270.442,339.416,261.07ZM309,293.158l-1.828-10.776,9.993,4.042Z" transform="translate(-265.882 -231.585)" fill="#121936"/>
                        <g id="Group_306735" data-name="Group 306735" transform="translate(37.985 29.687)">
                          <path id="Path_138647" data-name="Path 138647" d="M332.422,337.9a.369.369,0,0,1-.339-.335l-11.23-69.5a.415.415,0,0,1,.275-.483.356.356,0,0,1,.405.326l11.23,69.5a.415.415,0,0,1-.275.483.3.3,0,0,1-.066.008Z" transform="translate(-320.844 -267.584)" fill="#fff"/>
                          <path id="Path_138648" data-name="Path 138648" d="M342.348,300.353a.289.289,0,0,1-.112-.022l-16.272-6.639a.434.434,0,0,1-.214-.523.335.335,0,0,1,.439-.254l16.272,6.639a.435.435,0,0,1,.214.524A.355.355,0,0,1,342.348,300.353Z" transform="translate(-322.353 -272.025)" fill="#fff"/>
                        </g>
                        <g id="Group_306736" data-name="Group 306736" transform="translate(33.861 142.998)">
                          <path id="Path_138649" data-name="Path 138649" d="M332.264,411.618l2.849,2.144,16.574,12.051a1.774,1.774,0,0,1-.484,3.057l-31.764,6.656A1.592,1.592,0,0,1,317.653,434l-2.775-17.715Z" transform="translate(-314.878 -406.151)" fill="#195382"/>
                          <path id="Path_138650" data-name="Path 138650" d="M352.82,428.743l-.577-.42a1.343,1.343,0,0,1-.859.638l-31.764,6.656a1.328,1.328,0,0,1-1.078-.259l.246,1.572a1.592,1.592,0,0,0,1.786,1.526l31.764-6.656A1.774,1.774,0,0,0,352.82,428.743Z" transform="translate(-316.011 -409.081)" fill="#121936"/>
                          <path id="Path_138651" data-name="Path 138651" d="M318.539,436.46a.369.369,0,0,1-.339-.339.413.413,0,0,1,.278-.479l29.532-6.371a.36.36,0,0,1,.4.332.413.413,0,0,1-.278.479L318.6,436.451a.315.315,0,0,1-.062.009Z" transform="translate(-315.901 -409.247)" fill="#fff"/>
                          <path id="Path_138652" data-name="Path 138652" d="M325.072,428.083a3.643,3.643,0,1,1,3.006-3.587A3.341,3.341,0,0,1,325.072,428.083Zm0-6.35a2.806,2.806,0,1,0,2.315,2.762A2.571,2.571,0,0,0,325.072,421.734Z" transform="translate(-317.098 -407.78)" fill="#fff"/>
                          <path id="Path_138653" data-name="Path 138653" d="M340.96,418.6a.3.3,0,0,1-.181-.063.459.459,0,0,1-.113-.567l2.1-4.057a.317.317,0,0,1,.475-.134.46.46,0,0,1,.112.567l-2.1,4.057a.335.335,0,0,1-.293.2Z" transform="translate(-322.827 -406.52)" fill="#fff"/>
                          <path id="Path_138654" data-name="Path 138654" d="M344.674,420.97a.308.308,0,0,1-.182-.063.461.461,0,0,1-.112-.57l2.1-4.057a.317.317,0,0,1,.475-.134.46.46,0,0,1,.112.567l-2.1,4.057A.336.336,0,0,1,344.674,420.97Z" transform="translate(-323.974 -406.934)" fill="#fff"/>
                          <path id="Path_138655" data-name="Path 138655" d="M348.193,423.328a.3.3,0,0,1-.182-.063.46.46,0,0,1-.112-.571l2.1-4.057a.317.317,0,0,1,.475-.134.459.459,0,0,1,.112.57l-2.1,4.057A.334.334,0,0,1,348.193,423.328Z" transform="translate(-325.06 -407.347)" fill="#fff"/>
                          <path id="Path_138656" data-name="Path 138656" d="M338.692,412.746a.375.375,0,0,1-.127-.022c-.744-.247-2.976-4.274-3.189-4.927h0a2.207,2.207,0,0,1,.981-2.667,1.458,1.458,0,0,1,1.322.035,1.938,1.938,0,0,1,.913,1.141c.105.321,1.268,5.5.35,6.339a.372.372,0,0,1-.25.1Zm.076-.809Zm-1.783-6.123a.889.889,0,0,0-.374.084,1.323,1.323,0,0,0-.59,1.6h0a23.754,23.754,0,0,0,2.57,4.277,19.524,19.524,0,0,0-.641-5.172,1.057,1.057,0,0,0-.966-.789Z" transform="translate(-321.167 -404.989)" fill="#fff"/>
                          <path id="Path_138657" data-name="Path 138657" d="M340.284,413.053a.393.393,0,0,1-.33-.127.907.907,0,0,1-.158-.609c.063-1.272,2.134-4.2,2.643-4.733h0a1.541,1.541,0,0,1,2.435.19,2.345,2.345,0,0,1-.162,2.906C344.468,410.941,341.393,413.05,340.284,413.053Zm.2-.64Zm3.09-4.513a.943.943,0,0,0-.682.3h0a14.4,14.4,0,0,0-2.4,4.03,16.428,16.428,0,0,0,3.766-2.171,1.331,1.331,0,0,0,.351-.847,1.391,1.391,0,0,0-.254-.9.971.971,0,0,0-.78-.42Zm-.91-.005Z" transform="translate(-322.573 -405.354)" fill="#fff"/>
                        </g>
                      </g>
                      <g id="Group_306748" data-name="Group 306748" transform="translate(21.632)">
                        <path id="Path_138658" data-name="Path 138658" d="M312.04,116.237c-.412-.834-.811-1.591-1.183-2.266-1.291-2.345-2.916-4.822-2.8-7.468.753-16.682-13.977-21.712-24.833-18.414a11.96,11.96,0,0,0-.507-1.351c-1.775-3.969-5.229-5.9-7.711-4.323a5.64,5.64,0,0,0-2.248,4.262A6.044,6.044,0,0,0,267.08,90.6c-1.233,3.32.333,7.451,3.538,9.867a30.008,30.008,0,0,1-5.888,4.667l-.561.352c-7.629,4.786-9.27,15.922-5.343,22.072l1.13,1.787q.262.416.549.805a3.647,3.647,0,0,1,.579,3.233,18.146,18.146,0,0,0-.761,6.592,19.236,19.236,0,0,0,15.847,17.538,17.657,17.657,0,0,0,15.34-4.839,101.828,101.828,0,0,1,15.246-11.937,17.788,17.788,0,0,0,7.842-13.6,18.859,18.859,0,0,0-2.558-10.9Z" transform="translate(-256.766 -81.865)" fill="#121936"/>
                        <g id="Group_306747" data-name="Group 306747" transform="translate(20.827 16.669)">
                          <path id="Path_138659" data-name="Path 138659" d="M317.059,126.231l-1.126-13c-1.921-3.512-6.918-4.426-8.778-6.973-1.485-2.036-2.077-2.435-2.158-4.178h0c-.715,8.67-5.967,15.15-11.746,14.524l.009.1-1.888.079c-2.544.106-4.554,2.676-4.466,5.713l0,.127c.089,3.036,2.243,5.434,4.787,5.329l1.429-.06-2.2,16.879c-.491,5.1,17.257,6.253,17.749,1.157l.618-6.4C314.2,138.019,317.6,132.43,317.059,126.231Z" transform="translate(-286.903 -102.08)" fill="#f7a9a0"/>
                          <g id="Group_306746" data-name="Group 306746" transform="translate(1.897 10.385)">
                            <path id="Path_138660" data-name="Path 138660" d="M292.707,128.132a.335.335,0,0,1-.29-.19.464.464,0,0,1,.1-.571l1.173-.913-1.345-1.786a.469.469,0,0,1,.026-.582.308.308,0,0,1,.488.03l1.615,2.144a.47.47,0,0,1,.086.329.431.431,0,0,1-.154.292l-1.511,1.176A.313.313,0,0,1,292.707,128.132Z" transform="translate(-290.454 -116.304)" fill="#ff6969"/>
                            <g id="Group_306744" data-name="Group 306744" transform="translate(15.648 0)">
                              <path id="Path_138661" data-name="Path 138661" d="M329.231,122.424a1.085,1.085,0,0,1-.69,1.268.912.912,0,0,1-1.064-.824,1.085,1.085,0,0,1,.69-1.268.912.912,0,0,1,1.064.824Z" transform="translate(-316.971 -115.887)" fill="#121936"/>
                              <path id="Path_138662" data-name="Path 138662" d="M318.575,123.085a1.068,1.068,0,0,1-1.024,1.118,1.109,1.109,0,0,1-.937-1.222,1.069,1.069,0,0,1,1.024-1.118A1.109,1.109,0,0,1,318.575,123.085Z" transform="translate(-313.623 -115.933)" fill="#121936"/>
                              <g id="Group_306738" data-name="Group 306738" transform="translate(3.052 11.19)">
                                <path id="Path_138663" data-name="Path 138663" d="M317.207,128.743s-.254,3.8,4.012,3.791" transform="translate(-316.861 -128.33)" fill="#f7a9a0"/>
                                <path id="Path_138664" data-name="Path 138664" d="M321.051,132.858a4.162,4.162,0,0,1-3.5-1.464,4.441,4.441,0,0,1-.845-2.771.373.373,0,0,1,.372-.38.4.4,0,0,1,.317.444,3.19,3.19,0,0,0,3.651,3.348h.016a.417.417,0,0,1-.016.824Z" transform="translate(-316.707 -128.242)" fill="#ff6969"/>
                              </g>
                              <g id="Group_306739" data-name="Group 306739" transform="translate(3.331 21.074)">
                                <path id="Path_138665" data-name="Path 138665" d="M319.315,140.814a.155.155,0,0,1-.127-.008,1.4,1.4,0,0,0-1.751.451.167.167,0,0,1-.263.018.254.254,0,0,1-.016-.317,1.756,1.756,0,0,1,2.175-.565.24.24,0,0,1,.1.291A.2.2,0,0,1,319.315,140.814Z" transform="translate(-317.11 -140.227)" fill="#ff6969"/>
                              </g>
                              <g id="Group_306740" data-name="Group 306740" transform="translate(0 0.075)">
                                <path id="Path_138666" data-name="Path 138666" d="M312.695,117.678a2.414,2.414,0,0,0,1.178-.162c.409-.123.824-.235,1.185-.317s.782-.159,1.2-.224a2.484,2.484,0,0,0,1.141-.364c.287-.228.342-.707-.115-1.177a2.861,2.861,0,0,0-2.633-.57,3.2,3.2,0,0,0-2.244,1.677C312.145,117.174,312.354,117.593,312.695,117.678Z" transform="translate(-312.29 -114.756)" fill="#121936"/>
                              </g>
                              <g id="Group_306741" data-name="Group 306741" transform="translate(9.672)">
                                <path id="Path_138667" data-name="Path 138667" d="M329.718,116.8a1.458,1.458,0,0,1-.817-.058c-.285-.072-.57-.135-.824-.178s-.543-.079-.833-.106a1.5,1.5,0,0,1-.8-.217c-.2-.162-.249-.534.059-.929a1.9,1.9,0,0,1,1.809-.6,2.1,2.1,0,0,1,1.58,1.183C330.085,116.373,329.948,116.713,329.718,116.8Z" transform="translate(-326.285 -114.669)" fill="#121936"/>
                              </g>
                              <g id="Group_306742" data-name="Group 306742" transform="translate(2.648 7.63)">
                                <path id="Path_138668" data-name="Path 138668" d="M316.62,124.751a1.228,1.228,0,0,1,1.729.081" transform="translate(-316.275 -124.016)" fill="#f7a9a0"/>
                                <path id="Path_138669" data-name="Path 138669" d="M318.2,125.152a.311.311,0,0,1-.221-.1.911.911,0,0,0-1.3-.07.311.311,0,0,1-.484-.076.469.469,0,0,1,.063-.579,1.521,1.521,0,0,1,2.16.091.469.469,0,0,1,.046.581A.324.324,0,0,1,318.2,125.152Z" transform="translate(-316.123 -123.926)" fill="#ff6969"/>
                              </g>
                              <g id="Group_306743" data-name="Group 306743" transform="translate(10.557 7.084)">
                                <path id="Path_138670" data-name="Path 138670" d="M328.066,123.935a.7.7,0,0,1,1.021.138" transform="translate(-327.719 -123.353)" fill="#f7a9a0"/>
                                <path id="Path_138671" data-name="Path 138671" d="M328.932,124.393a.317.317,0,0,1-.245-.122.385.385,0,0,0-.579-.09.313.313,0,0,1-.479-.1.462.462,0,0,1,.081-.571.993.993,0,0,1,1.469.183.47.47,0,0,1,0,.583A.317.317,0,0,1,328.932,124.393Z" transform="translate(-327.564 -123.261)" fill="#ff6969"/>
                              </g>
                            </g>
                            <g id="Group_306745" data-name="Group 306745" transform="translate(22.12 3.107)">
                              <path id="Path_138672" data-name="Path 138672" d="M323.455,118.943l-.091,2.485a1.628,1.628,0,0,0,1.376,1.792h0a.814.814,0,0,1,.688.9h0A2.535,2.535,0,0,1,323,126.771l-.844-.044" transform="translate(-321.809 -118.528)" fill="#f7a9a0"/>
                              <path id="Path_138673" data-name="Path 138673" d="M322.951,127.1a1.1,1.1,0,0,1-.12,0l-.844-.044a.39.39,0,0,1-.331-.43c.008-.227.174-.423.361-.394l.844.044a1.8,1.8,0,0,0,1.427-.619,2.561,2.561,0,0,0,.642-1.641.5.5,0,0,0-.1-.321.348.348,0,0,0-.259-.145,1.672,1.672,0,0,1-1.239-.69,2.368,2.368,0,0,1-.467-1.533l.091-2.485c.009-.228.17-.417.361-.394a.392.392,0,0,1,.33.43l-.091,2.485a1.45,1.45,0,0,0,.286.939,1.027,1.027,0,0,0,.761.423,1,1,0,0,1,.738.411,1.414,1.414,0,0,1,.279.915,3.458,3.458,0,0,1-.865,2.214A2.438,2.438,0,0,1,322.951,127.1Z" transform="translate(-321.654 -118.44)" fill="#ff6969"/>
                            </g>
                            <path id="Path_138674" data-name="Path 138674" d="M291.731,135.222a1.05,1.05,0,0,1-.127-.005,1.965,1.965,0,0,1-1.433-.834,2.782,2.782,0,0,1-.519-1.8h0a2.265,2.265,0,0,1,2.207-2.327,1.965,1.965,0,0,1,1.433.834,2.783,2.783,0,0,1,.519,1.8A2.282,2.282,0,0,1,291.731,135.222Zm-1.391-2.586a1.857,1.857,0,0,0,.347,1.2,1.313,1.313,0,0,0,.957.557,1.517,1.517,0,0,0,1.476-1.554,1.858,1.858,0,0,0-.347-1.2,1.316,1.316,0,0,0-.958-.557,1.495,1.495,0,0,0-1.475,1.556Z" transform="translate(-289.648 -117.405)" fill="#fff"/>
                            <path id="Path_138675" data-name="Path 138675" d="M292.656,126.337" transform="translate(-290.577 -116.717)" fill="none" stroke="#ff6969" stroke-linecap="round" stroke-linejoin="round" stroke-width="5"/>
                          </g>
                        </g>
                      </g>
                      <g id="Group_306758" data-name="Group 306758" transform="translate(0 50.132)">
                        <g id="Group_306754" data-name="Group 306754" transform="translate(69.135 0)">
                          <path id="Path_138676" data-name="Path 138676" d="M371.977,159.1l-4.406-4.045,2.856-9.207a2.746,2.746,0,0,0-.863-2.982l-.094-.069a.74.74,0,0,0-1.11.3l-6.9,15.164-.136-.167-1.531-4.218a1.826,1.826,0,0,0-1.82-1.313l-.305.027a1.014,1.014,0,0,0-.761,1.293l1.369,5.933.559,4.329a3.463,3.463,0,0,0,.576,1.538l-.037.063L347.2,186.665l-9.934-15.308L325.5,196.4l10.079,16.7c6.656,11.024,20.982,8.367,24.519-4.542l8.3-30.285,4.994-11.7a6.777,6.777,0,0,0-1.415-7.475Z" transform="translate(-325.5 -142.66)" fill="#f7a9a0"/>
                          <g id="Group_306749" data-name="Group 306749" transform="translate(17.72 43.023)">
                            <line id="Line_825" data-name="Line 825" x1="3.964" y2="7.036" transform="translate(0.346 0.407)" fill="#ff9c9c"/>
                            <path id="Path_138677" data-name="Path 138677" d="M351.486,202.687a.311.311,0,0,1-.193-.07.464.464,0,0,1-.093-.571l3.964-7.036a.317.317,0,0,1,.48-.112.464.464,0,0,1,.094.571l-3.964,7.036a.335.335,0,0,1-.287.183Z" transform="translate(-351.141 -194.831)" fill="#ff6969"/>
                          </g>
                          <g id="Group_306753" data-name="Group 306753" transform="translate(35.616 10.961)">
                            <path id="Path_138678" data-name="Path 138678" d="M382.7,169.968a.38.38,0,0,1-.345-.4c-.164-6.218-4.853-7.62-5.053-7.676a.422.422,0,0,1-.254-.5.349.349,0,0,1,.415-.307c.054.015,5.4,1.593,5.586,8.454a.388.388,0,0,1-.335.425Z" transform="translate(-377.034 -156.85)" fill="#ff6969"/>
                            <g id="Group_306750" data-name="Group 306750" transform="translate(4.362 0)">
                              <path id="Path_138679" data-name="Path 138679" d="M386.173,156.658l-.035.17-2.219,9.643a2.119,2.119,0,0,0,.887,2.308l.484.274a.507.507,0,0,0,.727-.365l2.605-9.115a1.739,1.739,0,0,0-.717-1.949Z" transform="translate(-383.501 -156.073)" fill="#f7a9a0"/>
                              <path id="Path_138680" data-name="Path 138680" d="M385.359,169.4a.76.76,0,0,1-.375-.1l-.484-.274a2.559,2.559,0,0,1-1.071-2.789l2.354-10.29,2.112,1.18a2.188,2.188,0,0,1,.9,2.446l-2.608,9.124a.994.994,0,0,1-.488.624.753.753,0,0,1-.338.079Zm.887-12.287-2.15,9.339a1.675,1.675,0,0,0,.7,1.827l.484.274a.16.16,0,0,0,.15,0,.2.2,0,0,0,.1-.131l2.605-9.115a1.294,1.294,0,0,0-.536-1.441Z" transform="translate(-383.344 -155.949)" fill="#ff6969"/>
                            </g>
                            <g id="Group_306751" data-name="Group 306751" transform="translate(7.285 1.984)">
                              <path id="Path_138681" data-name="Path 138681" d="M390.167,159.065l-.032.153-1.994,8.661a1.9,1.9,0,0,0,.8,2.074l.436.247a.454.454,0,0,0,.652-.329l2.34-8.185a1.563,1.563,0,0,0-.644-1.751Z" transform="translate(-387.73 -158.479)" fill="#f7a9a0"/>
                              <path id="Path_138682" data-name="Path 138682" d="M389.419,170.542a.715.715,0,0,1-.352-.094l-.436-.247a2.346,2.346,0,0,1-.981-2.555l2.126-9.291,1.934,1.082a2.01,2.01,0,0,1,.827,2.248l-2.342,8.2a.936.936,0,0,1-.458.586A.717.717,0,0,1,389.419,170.542Zm.82-11.019-1.921,8.341a1.458,1.458,0,0,0,.611,1.592l.436.247a.108.108,0,0,0,.1,0,.147.147,0,0,0,.074-.093l2.34-8.186a1.118,1.118,0,0,0-.463-1.244Z" transform="translate(-387.574 -158.355)" fill="#ff6969"/>
                            </g>
                            <g id="Group_306752" data-name="Group 306752" transform="translate(9.661 3.486)">
                              <path id="Path_138683" data-name="Path 138683" d="M393.407,160.888l-.029.139-1.807,7.848a1.726,1.726,0,0,0,.721,1.879l.394.224a.413.413,0,0,0,.591-.3l2.12-7.416a1.414,1.414,0,0,0-.583-1.585Z" transform="translate(-391.168 -160.301)" fill="#f7a9a0"/>
                              <path id="Path_138684" data-name="Path 138684" d="M392.716,171.313a.672.672,0,0,1-.332-.09L391.99,171a2.165,2.165,0,0,1-.906-2.36l1.936-8.464,1.788,1a1.862,1.862,0,0,1,.766,2.083l-2.122,7.427a.879.879,0,0,1-.434.554.679.679,0,0,1-.3.073Zm.761-9.968-1.729,7.513a1.281,1.281,0,0,0,.536,1.395l.394.224c.084-.006.106-.023.115-.058l2.12-7.416a.971.971,0,0,0-.4-1.078Z" transform="translate(-391.013 -160.176)" fill="#ff6969"/>
                            </g>
                          </g>
                        </g>
                        <g id="Group_306756" data-name="Group 306756" transform="translate(0 9.686)">
                          <path id="Path_138685" data-name="Path 138685" d="M316.582,171.254l-11.09-11.642a13.272,13.272,0,0,0-8.975-4.319l-14.029-.69-.536-.072c-.467-.063-.93-.1-1.391-.112l0-.015-.254.005c-.372-.006-.742,0-1.108.025l-9.376.213c-6.725.683-12.313,6.466-13.831,14.314l-2.454,14.706a2.1,2.1,0,0,0,1.484,2.5l8.679,1.478-.145,36.342L311.726,227c1.653.1,2.8-1.939,2.084-3.721l-9.716-24.339,13.085-20.67A5.913,5.913,0,0,0,316.582,171.254Z" transform="translate(-234.117 -154.404)" fill="#60a6df"/>
                          <g id="Group_306755" data-name="Group 306755" transform="translate(0 32.283)">
                            <path id="Path_138686" data-name="Path 138686" d="M248.4,272.4a9.093,9.093,0,0,0,.341-1.227l20.407-73.968-19.714-3.654L235.708,267.32l-4.59-.612c-3.013-.4-5.649,2.412-5.649,6.03v8.033a.932.932,0,0,0,.84,1,2.923,2.923,0,0,0,2.636-3.145v2.142a.932.932,0,0,0,.84,1,2.923,2.923,0,0,0,2.636-3.145v2.142a.932.932,0,0,0,.84,1,2.9,2.9,0,0,0,2.628-3.055,2.359,2.359,0,0,0,1.6.658h2.265a3.419,3.419,0,0,0,3.008-2.105,6.941,6.941,0,0,0,5.626-4.835h0Z" transform="translate(-225.466 -193.552)" fill="#f7a9a0"/>
                            <path id="Path_138687" data-name="Path 138687" d="M230.383,296.291a.288.288,0,0,1-.259-.309v-6.47a.263.263,0,1,1,.519,0v6.473A.288.288,0,0,1,230.383,296.291Z" transform="translate(-226.904 -210.326)" fill="#ff6969"/>
                            <path id="Path_138688" data-name="Path 138688" d="M235.411,296.291a.288.288,0,0,1-.259-.309v-6.47a.263.263,0,1,1,.519,0v6.473A.288.288,0,0,1,235.411,296.291Z" transform="translate(-228.457 -210.326)" fill="#ff6969"/>
                          </g>
                        </g>
                        <g id="Group_306757" data-name="Group 306757" transform="translate(40.234 9.272)">
                          <path id="Path_138689" data-name="Path 138689" d="M289.573,195.037a1.96,1.96,0,0,1-.38-.038l-5.216-1.035a.411.411,0,0,1-.285-.474.359.359,0,0,1,.4-.339l5.216,1.034a1.721,1.721,0,0,0,1.909-1.6l2.472-16.021a.353.353,0,0,1,.4-.332.414.414,0,0,1,.278.48l-2.472,16.02A2.527,2.527,0,0,1,289.573,195.037Z" transform="translate(-283.683 -157.819)" fill="#fff"/>
                          <path id="Path_138690" data-name="Path 138690" d="M326.5,202.763a.292.292,0,0,1-.139-.035.444.444,0,0,1-.177-.543l2.2-5.985a20.926,20.926,0,0,0,.29-13.5l-2.633-8.287a.444.444,0,0,1,.2-.532.331.331,0,0,1,.444.239l2.634,8.287a21.9,21.9,0,0,1-.3,14.127l-2.2,5.985a.349.349,0,0,1-.314.246Z" transform="translate(-296.76 -157.402)" fill="#fff"/>
                          <path id="Path_138691" data-name="Path 138691" d="M310.246,155.836h-.018l-17.741-1.112a.392.392,0,0,1-.327-.434.376.376,0,0,1,.363-.39l17.74,1.109a.392.392,0,0,1,.327.434A.38.38,0,0,1,310.246,155.836Z" transform="translate(-286.3 -153.901)" fill="#fff"/>
                        </g>
                      </g>
                    </g>
                  </g>
                </g>
                <g id="Group_305793" data-name="Group 305793" transform="translate(390.228 14.754)">
                  <path id="Path_10476" data-name="Path 10476" d="M638.538,294.068a5.885,5.885,0,0,1-6.117,1.455c-9.689-3-41.992-13.6-40.309-20.916,1.979-8.6,30.085,2.517,37.815,6.766C636.369,284.913,642.211,290.028,638.538,294.068Z" transform="translate(-554.072 -225.483)" fill="#ffbe9d"/>
                  <path id="Path_10477" data-name="Path 10477" d="M615.1,295.7a5.809,5.809,0,0,0-1.227-5.25c-5.947-7.243-27.692-33.325-31.641-32.192-4.584,1.314,25.046,40.359,27.572,40.176C611.771,298.289,614.25,298.636,615.1,295.7Z" transform="translate(-570.055 -245.985)" fill="#ffbe9d"/>
                  <path id="Path_10480" data-name="Path 10480" d="M622.349,273.522l-19.516-1.629-6.141,13.415,18.947,8.946Z" transform="translate(-546.862 -224.766)" fill="#fec35b"/>
                  <path id="Path_10481" data-name="Path 10481" d="M602.893,300.023s-1.139-11.925,6.888-21.822,21.659-9.52,26.418-4.107c5.932,6.746,2.726,43.665,3.846,55.8s5.789,32.672,4.855,35.468-43.567,1.333-45.247-1.656S601.4,332.881,602.893,300.023Z" transform="translate(-542.967 -227.204)" fill="#dec6a0"/>
                  <path id="Path_10482" data-name="Path 10482" d="M604.307,268.791" transform="translate(-535.044 -229.58)" fill="none" stroke="#d5bb95" stroke-miterlimit="10" stroke-width="0.219"/>
                  <g id="Group_2675" data-name="Group 2675" transform="translate(57.665 0)">
                    <g id="Group_2674" data-name="Group 2674" transform="translate(0 0)">
                      <path id="Path_10483" data-name="Path 10483" d="M618.367,270.924c-1.679-.559-4.995,7.3-6.766,4.819-1.074-1.5.671-3.652-.536-6.273-1.662-3.586-8.716-2.039-8.716-2.039-5.6-3.721-.36-14-.36-14,4.28,4.479,9.321,1.322,24.824,6.72,15.5,5.424.181,24.464.181,24.464s-10.957-2.465-7.754-7.529C621.527,273.5,620.047,271.485,618.367,270.924Z" transform="translate(-599.763 -253.428)" fill="#222"/>
                      <path id="Path_10484" data-name="Path 10484" d="M618.82,268.772c-3.2,5.067,7.754,7.529,7.754,7.529l1.412,11.427L614.253,293.1l-.919-8.78s-4.684,3.18-10.465-.561c-5.78-3.721-.939-24.645-.939-24.645s7.057-1.547,8.716,2.04c1.207,2.621-.538,4.772.536,6.273,1.771,2.486,5.087-5.378,6.766-4.819S621.107,265.188,618.82,268.772Z" transform="translate(-599.344 -245.114)" fill="#ffbe9d"/>
                    </g>
                  </g>
                  <path id="Path_10485" data-name="Path 10485" d="M614.594,331.455c13.41-6.444,10.582,54.631,6.8,69.761s-6.447-1.625-8.69-26.973S609.319,333.99,614.594,331.455Z" transform="translate(-524.928 -133.043)" fill="#dec6a0"/>
                  <path id="Path_10486" data-name="Path 10486" d="M604.021,329.688c13.831-5.444,6.679,55.269,1.838,70.086s-6.315-2.1-6.753-27.544S598.582,331.83,604.021,329.688Z" transform="translate(-543.405 -135.585)" fill="#dec6a0"/>
                  <path id="Path_10487" data-name="Path 10487" d="M620.686,306.772a9.174,9.174,0,0,1,11.271,7.337,130.869,130.869,0,0,1,1.192,21.96c-.776,18.254-.508,35.143-7.233,38.693s-15.028-6.21-16.4-24.019c-1.241-16.1-5.212-35.943-.753-39.443C611.019,309.525,616.161,307.924,620.686,306.772Z" transform="translate(-531.334 -171.07)" fill="#dec6a0"/>
                  <path id="Path_10488" data-name="Path 10488" d="M614.846,305.5c4.89-.317,9.2,3.959,9.39,9.252a137.358,137.358,0,0,1-1.636,21.608c-2.976,17.631-4.829,34.129-11.414,36.326s-12.959-8.854-12.005-26.456c.863-15.908-.3-35.977,4.206-38.556C605.668,306.367,610.568,305.769,614.846,305.5Z" transform="translate(-543.151 -172.63)" fill="#dec6a0"/>
                  <path id="Path_10489" data-name="Path 10489" d="M601.51,310.279s-2.284,13.282-3.285,55.558c-.352,14.854,2.238,71.129,2.238,71.129l7.853-.143L637.98,304.61Z" transform="translate(-544.535 -173.974)" fill="#1f2c40"/>
                  <path id="Path_10490" data-name="Path 10490" d="M639.054,311.314s.012,31.181-.347,61.944-3.982,62.253-3.982,62.253h-9.048l-22.268-129.63Z" transform="translate(-536.438 -172.006)" fill="#212f47"/>
                  <path id="Path_10491" data-name="Path 10491" d="M615.151,273.167a12.136,12.136,0,0,0-3.609,3.122c-2.708,3.43-7.96,10.811-8.887,17.511-1.26,9.1-1.682,28.705-2.381,37.248,0,0-2.8,32.345-.421,35.285s44.389,2.241,46.209,1.261-2.94-24.645-3.642-33.468-1.674-41.6-2.24-47.327c-.84-8.5-2.94-14.982-10.783-16.8C623.566,268.645,618.592,271.246,615.151,273.167Z" transform="translate(-543.446 -228.288)" fill="#fec35b"/>
                  <path id="Path_10492" data-name="Path 10492" d="M599.27,307.516" transform="translate(-542.862 -169.468)" fill="none" stroke="#d5bb95" stroke-miterlimit="10" stroke-width="0.245"/>
                  <path id="Path_10493" data-name="Path 10493" d="M623.081,310.643" transform="translate(-505.901 -164.614)" fill="none" stroke="#d5bb95" stroke-miterlimit="10" stroke-width="0.245"/>
                  <g id="Group_2676" data-name="Group 2676" transform="translate(43.767 49.292)">
                    <path id="Path_10494" data-name="Path 10494" d="M640.838,277.938a5.89,5.89,0,0,1-3.119,5.463c-8.813,5.023-38.624,21.368-42.812,15.143-4.924-7.32,22.391-20.25,30.776-22.991C632.667,273.268,640.4,272.5,640.838,277.938Z" transform="translate(-594.318 -271.073)" fill="#fec35b"/>
                    <path id="Path_10495" data-name="Path 10495" d="M612.506,276.073s16.439-7.654,19.487.237-7.307,12.651-10.569,14.1-13.688,6.58-13.688,6.58l-7.072-15.056Z" transform="translate(-584.466 -272.741)" fill="#fec35b"/>
                  </g>
                  <path id="Path_10496" data-name="Path 10496" d="M610.086,270.108" transform="translate(-526.074 -227.536)" fill="none" stroke="#d5bb95" stroke-miterlimit="10" stroke-width="0.219"/>
                  <g id="Group_2677" data-name="Group 2677" transform="translate(0 41.007)">
                    <path id="Path_10497" data-name="Path 10497" d="M623.274,298a5.82,5.82,0,0,0-2.759-4.632c-7.861-5.1-36.478-23.381-39.9-21.107-3.971,2.642,36.084,30.887,38.437,29.948C620.88,301.481,623.353,301.06,623.274,298Z" transform="translate(-572.249 -265.499)" fill="#ffbe9d"/>
                    <path id="Path_10498" data-name="Path 10498" d="M589.36,278.5c-1.552,3.1-6.6-.179-8.282-1.36-2.738-1.927-4.482-6.254-3.737-7.351s6.718,3.658,7.1,3.548-2.3-2.7-1.5-3.66,4.8,2.014,5.921,3.813S590.33,276.559,589.36,278.5Z" transform="translate(-577.169 -269.495)" fill="#ffbe9d"/>
                  </g>
                  <path id="Path_10499" data-name="Path 10499" d="M619.29,358.86a32.935,32.935,0,0,1-5.523,5.176c-3.8,2.935-4.8,2.315-4.88,3.4s15.863.017,15.863.017l-.317-8.9S619.29,358.627,619.29,358.86Z" transform="translate(-527.934 -90.24)" fill="#1f2c40"/>
                  <path id="Path_10500" data-name="Path 10500" d="M605.958,358.4a32.964,32.964,0,0,1-5.635,5.056c-3.856,2.85-4.847,2.217-4.949,3.293s15.857.36,15.857.36l-.123-8.9S605.964,358.164,605.958,358.4Z" transform="translate(-548.911 -90.793)" fill="#1f2c40"/>
                  <path id="Path_10501" data-name="Path 10501" d="M599.94,306.553" transform="translate(-541.823 -170.963)" fill="#1d2155"/>
                </g>
              </g>
              <path id="Rectangle_163267" data-name="Rectangle 163267" d="M.713,0H569.287A.713.713,0,0,1,570,.713v0a.712.712,0,0,1-.712.712H.712A.712.712,0,0,1,0,.713v0A.713.713,0,0,1,.713,0Z" transform="translate(0 270.575)" fill="#2e3552"/>
            </g>
            <g id="Group_2670" data-name="Group 2670" transform="translate(267.475 1081.362)">
              <path id="Path_10473" data-name="Path 10473" d="M513.7,288.8l-2.557,1.074,2.557,1.058-.369.842-3.142-1.387v-1.026l3.142-1.387Z" transform="translate(-510.191 -286.015)" fill="#f9fbfc"/>
              <path id="Path_10474" data-name="Path 10474" d="M526.1,282.485l-1.876,7.182-.994-.233,1.883-7.174Z" transform="translate(-518.766 -282.26)" fill="#f9fbfc"/>
              <path id="Path_10475" data-name="Path 10475" d="M537.911,289.357v1.026l-3.142,1.387-.368-.842,2.557-1.058L534.4,288.8l.368-.826Z" transform="translate(-526.11 -286.014)" fill="#f9fbfc"/>
            </g>
            <g id="Group_2670-2" data-name="Group 2670" transform="translate(293.156 1118.05)">
              <path id="Path_10473-2" data-name="Path 10473" d="M513.7,288.8l-2.557,1.074,2.557,1.058-.369.842-3.142-1.387v-1.026l3.142-1.387Z" transform="translate(-510.191 -286.015)" fill="#f9fbfc"/>
              <path id="Path_10474-2" data-name="Path 10474" d="M526.1,282.485l-1.876,7.182-.994-.233,1.883-7.174Z" transform="translate(-518.766 -282.26)" fill="#f9fbfc"/>
              <path id="Path_10475-2" data-name="Path 10475" d="M537.911,289.357v1.026l-3.142,1.387-.368-.842,2.557-1.058L534.4,288.8l.368-.826Z" transform="translate(-526.11 -286.014)" fill="#f9fbfc"/>
            </g>
          </g>
        </g>
      </g>
    </g>
    <g id="Group_312155" data-name="Group 312155" transform="translate(617.99 1121.443)">
      <g id="Group_312153" data-name="Group 312153" transform="translate(24.23 9.039)">
        <path id="Path_141753" data-name="Path 141753" d="M273.931,298.508v2.68l-9.731,3.667v-2.539l6.911-2.539-6.911-2.539V294.7Z" transform="translate(-264.2 -294.7)" fill="#fff"/>
      </g>
      <g id="Group_312154" data-name="Group 312154" transform="translate(0 9.18)">
        <path id="Path_141754" data-name="Path 141754" d="M254.131,294.8v2.539l-6.911,2.539,6.911,2.539v2.539l-9.731-3.667v-2.68Z" transform="translate(-244.4 -294.8)" fill="#fff"/>
      </g>
      <text id="_" data-name="/" transform="translate(13.407 18)" fill="#fff" font-size="15" font-family="Montserrat-Bold, Montserrat" font-weight="700"><tspan x="0" y="0">/</tspan></text>
    </g>
  </g>
</svg>
